<mxfile host="app.diagrams.net" agent="Mozilla/5.0 (Windows NT 10.0; Win64; x64) AppleWebKit/537.36 (KHTML, like Gecko) Chrome/133.0.0.0 Safari/537.36 OPR/118.0.0.0" version="27.1.1">
  <diagram name="Página-1" id="tSB9Squ7Dw1w4PCGXbyG">
    <mxGraphModel dx="2503" dy="1350" grid="1" gridSize="10" guides="1" tooltips="1" connect="1" arrows="1" fold="1" page="1" pageScale="1" pageWidth="827" pageHeight="1169" math="0" shadow="0">
      <root>
        <mxCell id="0" />
        <mxCell id="1" parent="0" />
        <mxCell id="uIbMrtMenO_8kGXqIAlt-1" value="Cliente web" style="verticalAlign=top;align=left;spacingTop=8;spacingLeft=2;spacingRight=12;shape=cube;size=10;direction=south;fontStyle=4;html=1;whiteSpace=wrap;" vertex="1" parent="1">
          <mxGeometry x="290" y="40" width="180" height="120" as="geometry" />
        </mxCell>
        <mxCell id="uIbMrtMenO_8kGXqIAlt-2" value="Servidor Web" style="verticalAlign=top;align=left;spacingTop=8;spacingLeft=2;spacingRight=12;shape=cube;size=10;direction=south;fontStyle=4;html=1;whiteSpace=wrap;" vertex="1" parent="1">
          <mxGeometry x="290" y="220" width="180" height="120" as="geometry" />
        </mxCell>
        <mxCell id="uIbMrtMenO_8kGXqIAlt-3" value="Servidor de Aplicação" style="verticalAlign=top;align=left;spacingTop=8;spacingLeft=2;spacingRight=12;shape=cube;size=10;direction=south;fontStyle=4;html=1;whiteSpace=wrap;" vertex="1" parent="1">
          <mxGeometry x="290" y="380" width="180" height="120" as="geometry" />
        </mxCell>
        <mxCell id="uIbMrtMenO_8kGXqIAlt-4" value="Servidor de Imagens" style="verticalAlign=top;align=left;spacingTop=8;spacingLeft=2;spacingRight=12;shape=cube;size=10;direction=south;fontStyle=4;html=1;whiteSpace=wrap;" vertex="1" parent="1">
          <mxGeometry x="123" y="570" width="180" height="120" as="geometry" />
        </mxCell>
        <mxCell id="uIbMrtMenO_8kGXqIAlt-5" value="Banco de dados" style="verticalAlign=top;align=left;spacingTop=8;spacingLeft=2;spacingRight=12;shape=cube;size=10;direction=south;fontStyle=4;html=1;whiteSpace=wrap;" vertex="1" parent="1">
          <mxGeometry x="390" y="570" width="387" height="120" as="geometry" />
        </mxCell>
        <mxCell id="uIbMrtMenO_8kGXqIAlt-6" value="Navegador Web" style="html=1;whiteSpace=wrap;" vertex="1" parent="1">
          <mxGeometry x="315" y="80" width="110" height="50" as="geometry" />
        </mxCell>
        <mxCell id="uIbMrtMenO_8kGXqIAlt-7" value="App FrontEnd" style="html=1;whiteSpace=wrap;" vertex="1" parent="1">
          <mxGeometry x="325" y="270" width="110" height="50" as="geometry" />
        </mxCell>
        <mxCell id="uIbMrtMenO_8kGXqIAlt-8" value="Api Backend" style="html=1;whiteSpace=wrap;" vertex="1" parent="1">
          <mxGeometry x="315" y="420" width="110" height="50" as="geometry" />
        </mxCell>
        <mxCell id="uIbMrtMenO_8kGXqIAlt-9" value="Processamento Anti-ia" style="html=1;whiteSpace=wrap;" vertex="1" parent="1">
          <mxGeometry x="153" y="610" width="110" height="50" as="geometry" />
        </mxCell>
        <mxCell id="uIbMrtMenO_8kGXqIAlt-10" value="DB usuários" style="strokeWidth=2;html=1;shape=mxgraph.flowchart.database;whiteSpace=wrap;" vertex="1" parent="1">
          <mxGeometry x="400" y="605" width="97" height="70" as="geometry" />
        </mxCell>
        <mxCell id="uIbMrtMenO_8kGXqIAlt-11" value="DB Portfólios" style="strokeWidth=2;html=1;shape=mxgraph.flowchart.database;whiteSpace=wrap;" vertex="1" parent="1">
          <mxGeometry x="523" y="595" width="87" height="80" as="geometry" />
        </mxCell>
        <mxCell id="uIbMrtMenO_8kGXqIAlt-12" value="DB Imagens" style="strokeWidth=2;html=1;shape=mxgraph.flowchart.database;whiteSpace=wrap;" vertex="1" parent="1">
          <mxGeometry x="647" y="600" width="87" height="70" as="geometry" />
        </mxCell>
        <mxCell id="uIbMrtMenO_8kGXqIAlt-13" style="edgeStyle=orthogonalEdgeStyle;rounded=0;orthogonalLoop=1;jettySize=auto;html=1;entryX=0;entryY=0;entryDx=0;entryDy=85;entryPerimeter=0;" edge="1" parent="1" source="uIbMrtMenO_8kGXqIAlt-1" target="uIbMrtMenO_8kGXqIAlt-2">
          <mxGeometry relative="1" as="geometry" />
        </mxCell>
        <mxCell id="uIbMrtMenO_8kGXqIAlt-15" style="edgeStyle=orthogonalEdgeStyle;rounded=0;orthogonalLoop=1;jettySize=auto;html=1;entryX=0;entryY=0;entryDx=0;entryDy=85;entryPerimeter=0;" edge="1" parent="1" source="uIbMrtMenO_8kGXqIAlt-2" target="uIbMrtMenO_8kGXqIAlt-3">
          <mxGeometry relative="1" as="geometry" />
        </mxCell>
        <mxCell id="uIbMrtMenO_8kGXqIAlt-16" style="edgeStyle=orthogonalEdgeStyle;rounded=0;orthogonalLoop=1;jettySize=auto;html=1;entryX=0.027;entryY=0.402;entryDx=0;entryDy=0;entryPerimeter=0;" edge="1" parent="1" source="uIbMrtMenO_8kGXqIAlt-3" target="uIbMrtMenO_8kGXqIAlt-4">
          <mxGeometry relative="1" as="geometry" />
        </mxCell>
        <mxCell id="uIbMrtMenO_8kGXqIAlt-17" style="edgeStyle=orthogonalEdgeStyle;rounded=0;orthogonalLoop=1;jettySize=auto;html=1;entryX=0;entryY=0;entryDx=0;entryDy=188.5;entryPerimeter=0;" edge="1" parent="1" source="uIbMrtMenO_8kGXqIAlt-3" target="uIbMrtMenO_8kGXqIAlt-5">
          <mxGeometry relative="1" as="geometry" />
        </mxCell>
      </root>
    </mxGraphModel>
  </diagram>
</mxfile>
